<svg width="1200" height="630" viewBox="0 0 1200 630" fill="none" xmlns="http://www.w3.org/2000/svg">
<rect width="1200" height="630" fill="#F8FBF9"/>
<rect x="80" y="80" width="1040" height="470" rx="24" fill="#FFFFFF" stroke="#D8E4DE" stroke-width="2"/>
<rect x="130" y="130" width="72" height="72" rx="14" fill="#226F54"/>
<path d="M168.9 143.2C174.4 145.9 177.6 149.9 178.5 155.2C186.8 159 192 166.7 192 175.8C192 188.5 181.4 197.7 165.8 197.7C150.1 197.7 139.5 188.5 139.5 175.8C139.5 166.7 144.7 159 153 155.2C153.9 149.9 157.1 145.9 162.7 143.2L165.8 141.7L168.9 143.2Z" fill="#F8FBF9"/>
<text x="130" y="290" fill="#16382D" font-family="Arial, sans-serif" font-size="72" font-weight="700">AcornBids Help Center</text>
<text x="130" y="365" fill="#4F625A" font-family="Arial, sans-serif" font-size="34">Guides for using AcornBids to find, qualify, and track government opportunities.</text>
<text x="130" y="455" fill="#226F54" font-family="Arial, sans-serif" font-size="30" font-weight="700">docs.acornbids.com</text>
</svg>
