<svg width="1200" height="630" viewBox="0 0 1200 630" fill="none" xmlns="http://www.w3.org/2000/svg">
<rect width="1200" height="630" fill="#FBFCF8"/>
<path d="M0 0H1200V92H0V0Z" fill="#10241C"/>
<rect x="80" y="118" width="1040" height="394" rx="24" fill="#FFFFFF" stroke="#D8E4DE" stroke-width="2"/>
<rect x="130" y="168" width="78" height="78" rx="16" fill="#10241C"/>
<path d="M169 180L177 185.5C180.6 187.9 182.6 191.8 182.6 196V197.1C190.7 201.5 195.5 208.9 195.5 217.6C195.5 230 184.7 238.8 169 238.8C153.3 238.8 142.5 230 142.5 217.6C142.5 208.9 147.3 201.5 155.4 197.1V196C155.4 191.8 157.4 187.9 161 185.5L169 180Z" fill="#F8FBF9"/>
<path d="M169 190.3L172.4 192.6C174 193.7 174.9 195.3 174.9 197.2V202.5L179.5 204.7C184.9 207.4 187.8 212 187.8 217.6C187.8 225.3 180.7 230.2 169 230.2C157.3 230.2 150.2 225.3 150.2 217.6C150.2 212 153.1 207.4 158.5 204.7L163.1 202.5V197.2C163.1 195.3 164 193.7 165.6 192.6L169 190.3Z" fill="#14533F"/>
<path d="M158.8 215.5H179.2" stroke="#E0AD65" stroke-width="4" stroke-linecap="round"/>
<text x="232" y="202" fill="#10241C" font-family="Arial, sans-serif" font-size="32" font-weight="700">AcornBids</text>
<text x="232" y="236" fill="#50645B" font-family="Arial, sans-serif" font-size="22" font-weight="700">Product docs</text>
<text x="130" y="330" fill="#10241C" font-family="Arial, sans-serif" font-size="70" font-weight="700">Bid decisions start here.</text>
<text x="130" y="395" fill="#50645B" font-family="Arial, sans-serif" font-size="34">Find, qualify, and pursue government opportunities with AcornBids.</text>
<rect x="130" y="438" width="188" height="48" rx="24" fill="#E6F2EC"/>
<text x="158" y="470" fill="#14533F" font-family="Arial, sans-serif" font-size="22" font-weight="700">Saved searches</text>
<rect x="334" y="438" width="150" height="48" rx="24" fill="#F6EAD9"/>
<text x="362" y="470" fill="#8B551B" font-family="Arial, sans-serif" font-size="22" font-weight="700">AI answers</text>
<rect x="500" y="438" width="138" height="48" rx="24" fill="#EAF0F6"/>
<text x="528" y="470" fill="#284C72" font-family="Arial, sans-serif" font-size="22" font-weight="700">Pipeline</text>
<text x="130" y="566" fill="#14533F" font-family="Arial, sans-serif" font-size="28" font-weight="700">docs.acornbids.com</text>
</svg>
