<svg width="48" height="48" viewBox="0 0 48 48" fill="none" xmlns="http://www.w3.org/2000/svg">
<rect width="48" height="48" rx="10" fill="#10241C"/>
<path d="M24 7.2L28.7 10.4C30.8 11.8 32 14.1 32 16.6V17.2C36.8 19.8 39.6 24.2 39.6 29.3C39.6 36.6 33.2 41.8 24 41.8C14.8 41.8 8.4 36.6 8.4 29.3C8.4 24.2 11.2 19.8 16 17.2V16.6C16 14.1 17.2 11.8 19.3 10.4L24 7.2Z" fill="#F8FBF9"/>
<path d="M24 13.3L26 14.7C26.9 15.3 27.4 16.3 27.4 17.4V20.5L30.1 21.8C33.3 23.4 35 26.1 35 29.3C35 33.9 30.8 36.8 24 36.8C17.2 36.8 13 33.9 13 29.3C13 26.1 14.7 23.4 17.9 21.8L20.6 20.5V17.4C20.6 16.3 21.1 15.3 22 14.7L24 13.3Z" fill="#14533F"/>
<path d="M18.5 28.2H29.5" stroke="#9EE0BF" stroke-width="3" stroke-linecap="round"/>
<path d="M21.5 32.2H26.5" stroke="#F8FBF9" stroke-width="2" stroke-linecap="round"/>
</svg>
