<?xml version="1.0" standalone="no"?>
<!DOCTYPE svg PUBLIC "-//W3C//DTD SVG 20010904//EN"
 "http://www.w3.org/TR/2001/REC-SVG-20010904/DTD/svg10.dtd">
<svg version="1.0" xmlns="http://www.w3.org/2000/svg"
 width="381.000000pt" height="381.000000pt" viewBox="0 0 381.000000 381.000000"
 preserveAspectRatio="xMidYMid meet">
<metadata>
Created by potrace 1.16, written by Peter Selinger 2001-2019
</metadata>
<g transform="translate(0.000000,381.000000) scale(0.100000,-0.100000)"
fill="#553d1a" stroke="none">
<path d="M3007 3384 c18 -21 35 -52 39 -70 3 -19 10 -34 14 -34 4 0 12 -24 19
-54 20 -90 -18 -134 -117 -134 -60 -1 -162 -21 -162 -33 0 -4 -13 -10 -30 -14
-16 -4 -30 -11 -30 -16 0 -5 -6 -9 -14 -9 -24 0 -31 -41 -10 -57 90 -66 295
-265 318 -310 9 -17 24 -38 34 -45 10 -7 25 -25 33 -39 8 -15 31 -56 52 -91
20 -36 37 -71 37 -78 0 -7 6 -18 13 -24 7 -6 21 -38 31 -71 10 -33 22 -69 27
-80 5 -11 11 -36 13 -55 3 -19 6 -35 7 -35 2 0 6 -54 9 -125 2 -60 -11 -159
-21 -166 -5 -3 -9 -15 -9 -26 0 -19 -37 -102 -73 -164 -7 -12 -29 -38 -50 -58
-35 -34 -59 -42 -111 -37 -18 1 -134 87 -167 123 -9 10 -21 18 -28 18 -6 0
-11 4 -11 8 0 10 -144 127 -234 189 -34 24 -74 54 -90 68 -15 14 -29 25 -31
25 -1 0 -31 19 -65 43 -34 23 -69 47 -78 52 -9 6 -45 29 -80 53 -35 23 -67 42
-71 42 -4 0 -16 9 -26 20 -10 11 -22 20 -27 20 -5 0 -27 12 -51 27 -59 38 -80
51 -97 59 -8 4 -33 19 -55 33 -22 14 -56 33 -75 43 -40 20 -58 31 -117 71 -24
15 -43 26 -43 23 0 -2 -33 13 -72 34 -93 50 -261 134 -269 135 -3 0 -28 11
-55 24 -27 13 -62 29 -79 36 -141 61 -154 69 -170 106 -31 67 -2 150 89 257
25 29 60 65 78 80 18 14 35 29 38 32 3 3 16 11 30 18 14 6 32 16 40 21 49 31
164 71 206 71 19 0 34 4 34 8 0 10 26 12 198 16 196 4 423 -51 631 -152 l63
-31 19 22 c10 12 18 27 19 32 0 25 141 150 188 167 17 7 32 15 32 19 0 4 15
11 33 14 17 4 37 10 42 14 27 17 96 29 145 25 48 -3 59 -8 87 -40z m-1963
-783 c3 -4 26 -14 51 -21 24 -7 50 -19 56 -26 6 -8 18 -14 25 -14 8 0 22 -4
32 -10 9 -5 35 -18 57 -28 22 -10 49 -24 60 -30 11 -7 31 -16 45 -22 14 -5 32
-14 40 -19 8 -5 42 -23 75 -39 110 -54 165 -86 165 -94 0 -4 7 -8 16 -8 9 0
28 -8 42 -19 15 -10 48 -28 73 -39 25 -12 52 -28 59 -37 7 -8 18 -15 25 -15 6
0 31 -13 53 -30 23 -16 45 -30 48 -30 3 0 56 -33 118 -72 61 -40 118 -77 127
-83 9 -5 40 -27 70 -48 30 -20 78 -53 107 -72 28 -19 52 -39 52 -45 0 -5 5
-10 10 -10 6 0 16 -5 23 -10 46 -39 116 -90 123 -90 4 0 14 -7 23 -15 9 -8 27
-24 41 -37 25 -23 136 -114 155 -126 6 -4 23 -21 38 -38 l28 -32 -18 -33 c-10
-19 -31 -53 -46 -76 -15 -24 -27 -47 -27 -52 0 -11 -62 -109 -83 -131 -8 -8
-20 -30 -28 -48 -8 -17 -17 -32 -21 -32 -4 0 -13 -11 -20 -24 -23 -42 -80
-108 -189 -216 -107 -105 -150 -139 -244 -194 -27 -16 -52 -32 -55 -36 -3 -4
-27 -15 -55 -25 -27 -11 -52 -22 -55 -25 -3 -4 -30 -15 -60 -24 -30 -10 -68
-24 -85 -31 -39 -16 -119 -35 -148 -35 -13 0 -27 -3 -31 -8 -4 -4 -22 -8 -39
-9 -18 -1 -45 -5 -62 -8 -36 -8 -382 -10 -445 -2 -25 3 -69 8 -99 12 -60 7
-95 22 -129 57 -25 26 -64 83 -88 131 -9 17 -23 36 -30 40 -8 4 -14 17 -14 27
0 10 -4 21 -8 24 -4 2 -23 35 -41 73 -18 37 -41 84 -52 104 -10 20 -19 46 -19
57 0 11 -6 25 -14 31 -8 6 -16 24 -19 39 -3 15 -14 59 -25 97 -44 156 -55 226
-56 363 -1 141 6 230 23 317 14 72 60 218 71 229 6 6 10 18 10 27 0 15 28 80
52 119 4 8 20 38 34 65 31 61 32 64 122 202 95 145 137 186 156 154z"/>
<path d="M1155 2290 c-4 -6 -10 -8 -14 -6 -9 6 -94 -118 -136 -199 -8 -16 -20
-37 -25 -45 -10 -15 -50 -105 -56 -125 -2 -5 -15 -41 -29 -80 -15 -38 -28 -81
-30 -95 -1 -14 -8 -52 -15 -85 -16 -72 -17 -294 -2 -332 6 -16 16 -56 23 -90
7 -35 16 -63 21 -63 4 0 10 -15 13 -33 7 -34 56 -77 88 -77 37 0 63 28 65 71
2 22 -1 46 -7 52 -15 19 -59 197 -54 218 3 10 1 25 -4 32 -26 32 5 289 43 359
7 14 14 32 14 38 0 21 114 256 136 281 8 8 14 21 14 27 0 6 9 16 20 22 10 6
17 17 14 24 -3 8 -1 17 5 21 30 18 -7 82 -51 90 -15 3 -30 1 -33 -5z"/>
</g>
</svg>
