<svg width="48" height="48" viewBox="0 0 48 48" fill="none" xmlns="http://www.w3.org/2000/svg">
<rect width="48" height="48" rx="10" fill="#226F54"/>
<path d="M25.9 8.8C29.2 10.4 31.1 12.8 31.7 16C36.7 18.3 39.8 22.9 39.8 28.4C39.8 36 33.4 41.5 24 41.5C14.6 41.5 8.2 36 8.2 28.4C8.2 22.9 11.3 18.3 16.3 16C16.8 12.8 18.8 10.4 22.1 8.8L24 7.9L25.9 8.8Z" fill="#F8FBF9"/>
<path d="M24 13.2C22.5 14.1 21.7 15.4 21.7 17.2V19.4L19.6 20.1C15.9 21.4 13.8 24.5 13.8 28.4C13.8 33.1 17.8 36 24 36C30.2 36 34.2 33.1 34.2 28.4C34.2 24.5 32.1 21.4 28.4 20.1L26.3 19.4V17.2C26.3 15.4 25.5 14.1 24 13.2Z" fill="#226F54"/>
</svg>
